<svg width="120" height="120" viewBox="0 0 120 120" fill="none" xmlns="http://www.w3.org/2000/svg">
<g clip-path="url(#clip0_47_106)">
<circle cx="60" cy="60" r="60" fill="#DDF247"/>
<path d="M98.4332 34.7237C92.9891 26.4458 85.0178 20.1469 75.7056 16.7642C66.3933 13.3815 56.2378 13.0958 46.7501 15.9496C37.2624 18.8034 28.9496 24.6442 23.0487 32.6028C17.1479 40.5615 13.9743 50.2127 14.0002 60.1203C14.0261 70.0278 17.2501 79.6623 23.1925 87.59C29.1349 95.5177 37.4781 101.315 46.9806 104.119C56.4831 106.923 66.637 106.584 75.9314 103.153C85.2259 99.7217 93.1641 93.3812 98.5648 85.075L83.1179 75.0314C79.8804 80.0106 75.1218 83.8114 69.5502 85.8684C63.9786 87.9253 57.8918 88.1284 52.1954 86.4475C46.4991 84.7665 41.4977 81.2913 37.9355 76.539C34.3733 71.7867 32.4406 66.0112 32.4251 60.0721C32.4096 54.1329 34.312 48.3475 37.8493 43.5766C41.3867 38.8057 46.3698 35.3044 52.0573 33.5937C57.7447 31.883 63.8325 32.0542 69.4148 34.082C74.9971 36.1098 79.7755 39.8857 83.039 44.8479L98.4332 34.7237Z" fill="#4A4F59"/>
</g>
<defs>
<clipPath id="clip0_47_106">
<rect width="120" height="120" fill="white"/>
</clipPath>
</defs>
</svg>
