<svg width="26" height="27" viewBox="0 0 26 27" fill="none" xmlns="http://www.w3.org/2000/svg">
<path d="M25.2674 18.0677C25.1168 17.1488 24.242 16.5104 23.3276 16.7092C18.2584 17.8112 13.6645 20.4199 10.1602 24.1866C9.52807 24.866 9.65312 25.9303 10.3872 26.5177C11.1212 27.1052 12.1858 26.9927 12.8249 26.3198C15.7937 23.1937 19.6373 21.011 23.8745 20.045C24.7867 19.837 25.4179 18.9865 25.2674 18.0677Z" fill="#DDF247"/>
<path d="M13.0415 1.68698C12.4598 0.78357 11.2489 0.503644 10.39 1.1359C7.84744 3.00758 5.68053 5.33995 4.00543 8.01712C2.33033 10.6943 1.18277 13.6591 0.61605 16.7568C0.424612 17.8032 1.21059 18.7623 2.28128 18.8841C3.35197 19.0059 4.3006 18.2437 4.50647 17.2001C5.00408 14.6777 5.9573 12.2643 7.32572 10.0773C8.69413 7.89024 10.4496 5.97459 12.5041 4.41818C13.3541 3.77429 13.6231 2.59039 13.0415 1.68698Z" fill="#DDF247"/>
<path d="M24.0319 7.90749C23.8356 6.84332 22.8041 6.12058 21.7498 6.38381C18.1099 7.29259 14.7179 8.98876 11.8211 11.3602C8.9242 13.7316 6.60705 16.7091 5.02703 20.0735C4.56938 21.048 5.09668 22.1834 6.11871 22.5717C7.14074 22.96 8.26932 22.453 8.74081 21.4852C10.0732 18.7501 11.986 16.3273 14.3585 14.3851C16.7311 12.4429 19.4962 11.0362 22.4641 10.2509C23.5144 9.97299 24.2283 8.97166 24.0319 7.90749Z" fill="#DDF247"/>
</svg>
