<svg width="26" height="27" viewBox="0 0 26 27" fill="none" xmlns="http://www.w3.org/2000/svg">
<path d="M1.0384 19.1226C1.07023 18.192 1.85627 17.447 2.78853 17.5272C7.95709 17.9721 12.8467 19.9721 16.8039 23.2599C17.5177 23.8529 17.5297 24.9244 16.8768 25.6009C16.2239 26.2774 15.1536 26.3019 14.4337 25.7162C11.0897 22.9953 6.99859 21.322 2.6726 20.9056C1.74133 20.8159 1.00657 20.0531 1.0384 19.1226Z" fill="#DDF247"/>
<path d="M11.0697 1.31325C11.5311 0.342889 12.6963 -0.0895554 13.629 0.427703C16.39 1.95897 18.8373 3.99517 20.8409 6.43621C22.8445 8.87725 24.3617 11.6711 25.3198 14.6708C25.6435 15.6842 24.9866 16.7359 23.9402 16.9936C22.8939 17.2513 21.8556 16.6166 21.518 15.6079C20.702 13.1698 19.4481 10.8981 17.8113 8.90394C16.1745 6.90981 14.1885 5.23431 11.9519 3.95333C11.0266 3.42339 10.6084 2.2836 11.0697 1.31325Z" fill="#DDF247"/>
<path d="M0.964752 8.88781C1.02344 7.80726 1.95401 6.95859 3.03333 7.08487C6.75961 7.52083 10.3406 8.76943 13.5168 10.7511C16.6931 12.7327 19.3719 15.3894 21.3691 18.5243C21.9476 19.4323 21.5697 20.6258 20.6057 21.1415C19.6417 21.6573 18.4576 21.2988 17.8662 20.3991C16.1951 17.8568 13.9882 15.6985 11.3869 14.0756C8.78554 12.4526 5.86329 11.4109 2.81927 11.0115C1.74205 10.8702 0.906059 9.96835 0.964752 8.88781Z" fill="#DDF247"/>
</svg>
