<svg width="152" height="152" viewBox="0 0 152 152" fill="none" xmlns="http://www.w3.org/2000/svg">
<g id="rounded-text">
<circle id="Ellipse 1" cx="76" cy="76" r="75" fill="#E4F56C" stroke="#292C32" stroke-width="2"/>
<g id="text">
<path id="E" d="M23.8068 81.4561L25.8435 81.054L27.9723 91.5197L11.0861 94.9545L8.95728 84.4888L10.9916 84.075L12.6086 92.0243L17.959 90.9359L16.6578 84.5389L18.6216 84.1395L19.9228 90.5365L25.4261 89.4171L23.8068 81.4561Z" fill="#292C32"/>
<path id="x" d="M26.8014 67.769L26.6369 70.019C26.6235 70.2025 26.5648 70.3467 26.4609 70.4514C26.3496 70.5475 26.2358 70.6234 26.1194 70.6791L21.2734 73.2727C21.3902 73.3213 21.503 73.3697 21.6117 73.4177C21.7205 73.4658 21.8205 73.5252 21.9115 73.5961L25.6881 76.5793C25.794 76.6673 25.895 76.7669 25.9911 76.8782C26.0793 76.9889 26.1172 77.1281 26.105 77.2956L25.9528 79.3781L20.0032 74.6838L13.8054 78.3217L13.9699 76.0717C13.9833 75.8881 14.0209 75.7585 14.0826 75.6828C14.1448 75.5991 14.2342 75.5295 14.3505 75.4738L19.0015 72.9141C18.8848 72.8654 18.7723 72.8131 18.6641 72.7571C18.5479 72.7004 18.4289 72.6276 18.3071 72.5385L14.814 69.7925C14.5691 69.6302 14.4555 69.4294 14.473 69.19L14.6296 67.0477L20.1247 71.5403L26.8014 67.769Z" fill="#292C32"/>
<path id="p" d="M25.5447 62.2844C26.1492 62.0944 26.6202 61.8265 26.9578 61.4806C27.2981 61.1272 27.562 60.6909 27.7495 60.1717C28.1137 59.1635 28.0338 58.2543 27.5099 57.4441C26.9812 56.6237 26.0208 55.9621 24.6288 55.4593C23.899 55.1957 23.2551 55.0354 22.6973 54.9786C22.1346 54.9114 21.648 54.9398 21.2375 55.0637C20.8222 55.1774 20.4768 55.3801 20.2013 55.6719C19.9183 55.9609 19.6979 56.3236 19.5403 56.76C19.3093 57.3996 19.2512 58.008 19.3659 58.5853C19.4833 59.1551 19.7333 59.7345 20.116 60.3235L25.5447 62.2844ZM18.5741 59.8942C18.3752 59.5502 18.208 59.2006 18.0726 58.8455C17.9324 58.4801 17.8366 58.1095 17.7852 57.7337C17.7263 57.3552 17.7155 56.9728 17.753 56.5865C17.7856 56.19 17.8753 55.7886 18.0221 55.3823C18.2585 54.7277 18.5997 54.1833 19.0458 53.749C19.4946 53.3072 20.0352 52.9878 20.6677 52.791C21.3002 52.5941 22.018 52.526 22.8213 52.5864C23.6272 52.6394 24.5042 52.837 25.4523 53.1795C26.3025 53.4866 27.0504 53.8886 27.696 54.3854C28.3368 54.8721 28.8469 55.4263 29.2262 56.0481C29.6082 56.6624 29.8421 57.3338 29.9277 58.0622C30.0085 58.7804 29.9104 59.5232 29.6331 60.2907C29.3858 60.9754 29.061 61.5215 28.6586 61.9291C28.2562 62.3366 27.7826 62.6589 27.2377 62.8958L32.215 64.6936L31.42 66.8944L16.1045 61.3626L16.5814 60.0421C16.6928 59.7336 16.9089 59.5947 17.2295 59.6254L18.5741 59.8942Z" fill="#292C32"/>
<path id="l" d="M19.8975 40.5826L34.7415 50.2454L33.4584 52.2166L18.6143 42.5538L19.8975 40.5826Z" fill="#292C32"/>
<path id="o" d="M33.209 33.1605C33.8564 32.5411 34.5425 32.0894 35.2674 31.8055C35.9925 31.5103 36.7279 31.388 37.4737 31.4384C38.2197 31.4775 38.9592 31.6834 39.6922 32.056C40.4197 32.4229 41.1153 32.9532 41.7789 33.6468C42.4426 34.3405 42.9444 35.0617 43.2843 35.8104C43.6243 36.5591 43.7973 37.307 43.8034 38.054C43.8153 38.7955 43.6606 39.5249 43.3392 40.242C43.0181 40.9479 42.5338 41.6105 41.8864 42.2299C41.2332 42.8549 40.5441 43.3149 39.819 43.6101C39.0941 43.894 38.3587 44.0164 37.6126 43.9773C36.8666 43.9382 36.1242 43.735 35.3854 43.3679C34.6524 42.9953 33.9541 42.4621 33.2904 41.7685C32.6268 41.0748 32.1277 40.3565 31.7933 39.6136C31.4592 38.8593 31.289 38.1086 31.2829 37.3616C31.2712 36.6088 31.426 35.8795 31.7471 35.1736C32.0685 34.4565 32.5558 33.7854 33.209 33.1605ZM40.6255 40.912C41.4578 40.1156 41.811 39.2407 41.6849 38.2873C41.5589 37.334 41.0092 36.3486 40.0358 35.3313C39.0624 34.3139 38.1023 33.7212 37.1554 33.5532C36.203 33.3794 35.3106 33.6907 34.4782 34.4871C33.6343 35.2945 33.2752 36.1806 33.401 37.1453C33.5271 38.0987 34.0768 39.084 35.0502 40.1014C36.0236 41.1187 36.9837 41.7114 37.9306 41.8794C38.8832 42.0419 39.7815 41.7194 40.6255 40.912Z" fill="#292C32"/>
<path id="r" d="M46.0813 26.8276C46.0253 25.9385 46.1241 25.1592 46.3775 24.4895C46.631 23.8199 47.0948 23.2928 47.7688 22.9083C47.9981 22.7775 48.2293 22.6824 48.4626 22.623C48.6988 22.5527 48.923 22.526 49.1354 22.543L49.8741 24.1525C49.9325 24.3679 49.8713 24.5271 49.6907 24.6302C49.5934 24.6857 49.4375 24.7516 49.2232 24.8278C49.0048 24.8971 48.7845 24.9952 48.5621 25.1221C48.2355 25.3084 47.9749 25.5216 47.7803 25.7616C47.5817 25.9946 47.4351 26.2625 47.3406 26.565C47.2492 26.8567 47.2043 27.1816 47.206 27.5399C47.2038 27.8911 47.2338 28.2747 47.2961 28.6905L51.0782 35.3194L49.0457 36.479L43.0038 25.8894L44.1712 25.2233C44.3936 25.0965 44.5667 25.0529 44.6908 25.0927C44.8177 25.1216 44.9561 25.2268 45.1058 25.4085L46.0813 26.8276Z" fill="#292C32"/>
<path id="e" d="M63.2508 22.7276C63.1254 22.2808 62.9443 21.8871 62.7074 21.5465C62.4782 21.2036 62.2015 20.9282 61.8772 20.7201C61.5529 20.512 61.192 20.3806 60.7944 20.326C60.3969 20.2714 59.967 20.309 59.5049 20.4387C58.5575 20.7046 57.8871 21.1877 57.4938 21.8881C57.1081 22.5863 56.9783 23.4412 57.1043 24.4528L63.2508 22.7276ZM66.6545 27.7049C66.4681 28.1063 66.2273 28.4771 65.9323 28.8175C65.6352 29.1502 65.303 29.447 64.9359 29.7079C64.5687 29.9688 64.1754 30.1956 63.7558 30.3881C63.3439 30.5785 62.9262 30.7332 62.5025 30.8521C61.6938 31.0791 60.905 31.1551 60.1361 31.08C59.3728 30.9952 58.6634 30.7622 58.008 30.3811C57.3582 29.9902 56.7816 29.4457 56.2783 28.7478C55.7805 28.04 55.3889 27.1777 55.1035 26.161C54.8744 25.3446 54.7885 24.5502 54.846 23.778C54.9012 22.998 55.0903 22.2802 55.4131 21.6246C55.7437 20.9668 56.2095 20.3915 56.8107 19.8987C57.4119 19.4059 58.14 19.0395 58.995 18.7995C59.7113 18.5985 60.4033 18.533 61.0711 18.6031C61.7445 18.6634 62.3634 18.8553 62.9278 19.1788C63.4922 19.5023 63.9895 19.9568 64.4198 20.5424C64.8577 21.1257 65.1945 21.8372 65.4302 22.6767C65.5274 23.0233 65.5549 23.2691 65.5124 23.4139C65.4678 23.5511 65.3416 23.6488 65.1336 23.7072L57.439 25.867C57.6588 26.5614 57.9308 27.1456 58.255 27.6197C58.577 28.086 58.9407 28.4492 59.346 28.7093C59.7591 28.9673 60.2051 29.1205 60.684 29.1689C61.1629 29.2173 61.6681 29.1669 62.1995 29.0177C62.7002 28.8772 63.1153 28.6983 63.4449 28.4812C63.7822 28.2619 64.0634 28.05 64.2885 27.8456C64.5192 27.6313 64.7069 27.4415 64.8516 27.2762C65.004 27.1088 65.1496 27.0056 65.2882 26.9667C65.4731 26.9148 65.635 26.9441 65.7741 27.0547L66.6545 27.7049Z" fill="#292C32"/>
<path id="C" d="M92.5784 27.8671C92.7195 27.8959 92.8298 27.9756 92.9093 28.1062L93.6757 29.3897C92.8194 30.0638 91.8478 30.5226 90.7611 30.7659C89.6822 31.0107 88.4452 30.9906 87.05 30.7054C85.8273 30.4555 84.7615 30.0172 83.8526 29.3904C82.9515 28.7653 82.226 28.0005 81.676 27.0961C81.1338 26.1932 80.7788 25.1734 80.6111 24.0368C80.4433 22.9002 80.4892 21.697 80.7487 20.4273C81.0083 19.1575 81.4461 18.0344 82.0621 17.058C82.6859 16.0832 83.44 15.2902 84.3244 14.6789C85.2087 14.0676 86.1997 13.6537 87.2973 13.4371C88.4027 13.2221 89.5707 13.2404 90.8013 13.492C92.0005 13.7371 93.0264 14.1509 93.879 14.7335C94.7316 15.316 95.4363 16.0031 95.9931 16.7946L94.9322 17.7903C94.8597 17.8653 94.7747 17.9214 94.6773 17.9587C94.5877 17.9975 94.4763 18.0033 94.343 17.9761C94.1941 17.9457 94.033 17.8351 93.8596 17.6446C93.6941 17.4556 93.4652 17.2373 93.1728 16.9898C92.8899 16.736 92.5247 16.4857 92.077 16.2391C91.6293 15.9924 91.0488 15.7962 90.3356 15.6504C89.4969 15.479 88.6984 15.4709 87.9399 15.6262C87.1831 15.7736 86.493 16.0735 85.8698 16.5258C85.256 16.9719 84.7256 17.5698 84.2784 18.3194C83.8406 19.0628 83.5184 19.9401 83.3117 20.9512C83.1019 21.9779 83.0602 22.9207 83.1868 23.7794C83.3134 24.6382 83.5745 25.3979 83.9702 26.0585C84.366 26.7191 84.879 27.2649 85.5095 27.6959C86.14 28.1269 86.8549 28.4241 87.6544 28.5876C88.1403 28.6869 88.581 28.7484 88.9762 28.772C89.3809 28.7894 89.756 28.7722 90.1014 28.7203C90.4546 28.67 90.7947 28.5844 91.1215 28.4634C91.45 28.3346 91.7817 28.1697 92.1167 27.9687C92.1907 27.9266 92.2661 27.8971 92.343 27.8802C92.4216 27.8554 92.5001 27.8511 92.5784 27.8671Z" fill="#292C32"/>
<path id="o_2" d="M105.175 24.624C105.959 25.0567 106.595 25.5766 107.083 26.1835C107.581 26.7873 107.918 27.4526 108.092 28.1794C108.278 28.903 108.302 29.6703 108.166 30.4811C108.033 31.285 107.735 32.1072 107.271 32.9478C106.807 33.7884 106.269 34.4828 105.656 35.0309C105.043 35.579 104.381 35.9676 103.67 36.1966C102.966 36.4295 102.224 36.4997 101.443 36.4073C100.674 36.3117 99.8968 36.0475 99.1122 35.6148C98.3206 35.1781 97.6757 34.6579 97.1773 34.0541C96.6899 33.4472 96.3533 32.7819 96.1678 32.0583C95.9822 31.3346 95.9542 30.5655 96.0839 29.7507C96.2205 28.9399 96.5207 28.1141 96.9843 27.2736C97.448 26.433 97.9844 25.7421 98.5935 25.201C99.2135 24.6568 99.879 24.2701 100.59 24.0411C101.305 23.805 102.047 23.7348 102.817 23.8304C103.597 23.9228 104.383 24.1874 105.175 24.624ZM99.9932 34.0176C101.002 34.5741 101.942 34.6497 102.815 34.2446C103.687 33.8394 104.463 33.0204 105.143 31.7875C105.823 30.5547 106.102 29.4613 105.979 28.5075C105.86 27.5467 105.297 26.788 104.288 26.2316C103.265 25.6675 102.312 25.5895 101.429 25.9978C100.557 26.403 99.7811 27.222 99.1011 28.4548C98.421 29.6877 98.1422 30.7811 98.2648 31.7349C98.3943 32.6926 98.9705 33.4535 99.9932 34.0176Z" fill="#292C32"/>
<path id="u" d="M122.391 39.0433L113.712 47.6062L112.726 46.6068C112.502 46.379 112.467 46.1214 112.621 45.8339L113.374 44.8547C112.99 44.8634 112.614 44.8467 112.246 44.8046C111.879 44.7626 111.52 44.6838 111.17 44.5683C110.826 44.4472 110.493 44.2866 110.172 44.0864C109.845 43.8919 109.533 43.6437 109.235 43.3419C108.763 42.8635 108.427 42.3634 108.227 41.8417C108.033 41.3256 107.957 40.8046 108 40.2788C108.049 39.7474 108.214 39.2195 108.494 38.6953C108.775 38.1711 109.16 37.6674 109.65 37.1842L115.177 31.7313L116.829 33.4055L111.302 38.8585C110.681 39.4709 110.338 40.0909 110.271 40.7183C110.21 41.3402 110.469 41.9444 111.048 42.531C111.47 42.9581 111.962 43.2584 112.527 43.4319C113.097 43.5998 113.719 43.6718 114.392 43.6481L120.748 37.3776L122.391 39.0433Z" fill="#292C32"/>
<path id="r_2" d="M125.585 48.1626C126.473 48.093 127.254 48.1798 127.928 48.423C128.601 48.6661 129.135 49.1217 129.53 49.7897C129.664 50.017 129.763 50.2468 129.826 50.4791C129.9 50.7142 129.93 50.938 129.916 51.1506L128.318 51.9139C128.104 51.9756 127.944 51.9169 127.838 51.7378C127.781 51.6414 127.713 51.4866 127.633 51.2734C127.561 51.0562 127.459 50.8374 127.329 50.617C127.137 50.2933 126.92 50.036 126.677 49.8451C126.441 49.65 126.171 49.5076 125.867 49.4178C125.574 49.3308 125.249 49.291 124.89 49.2982C124.539 49.3014 124.156 49.3373 123.741 49.4059L117.171 53.2894L115.981 51.275L126.476 45.0712L127.16 46.2282C127.29 46.4485 127.337 46.621 127.299 46.7456C127.272 46.8731 127.169 47.013 126.989 47.1655L125.585 48.1626Z" fill="#292C32"/>
<path id="s" d="M132.281 63.5986C132.162 63.5695 132.069 63.528 132.001 63.4741C131.941 63.4178 131.894 63.3363 131.86 63.2296C131.821 63.1078 131.819 62.9572 131.854 62.778C131.891 62.6063 131.925 62.398 131.955 62.1529C131.988 61.9155 132.002 61.6424 131.995 61.3337C131.988 61.0249 131.923 60.6763 131.798 60.2878C131.695 59.9679 131.559 59.6881 131.39 59.4484C131.23 59.2139 131.049 59.0284 130.846 58.8921C130.65 58.7533 130.437 58.6661 130.207 58.6307C129.985 58.5928 129.764 58.6093 129.543 58.6802C129.253 58.7731 129.04 58.9339 128.903 59.1626C128.769 59.399 128.678 59.6762 128.629 59.9945C128.582 60.3203 128.558 60.6768 128.556 61.0638C128.564 61.4561 128.566 61.8546 128.562 62.2593C128.56 62.6717 128.535 63.0787 128.487 63.4805C128.45 63.8874 128.357 64.2658 128.209 64.6159C128.071 64.971 127.865 65.285 127.591 65.5577C127.32 65.838 126.948 66.054 126.476 66.2056C125.935 66.3792 125.401 66.4416 124.872 66.3927C124.354 66.3489 123.866 66.1904 123.409 65.9172C122.954 65.6515 122.542 65.2712 122.173 64.7763C121.804 64.2814 121.505 63.6759 121.275 62.9599C121.018 62.1601 120.914 61.3784 120.963 60.6149C121.012 59.8514 121.169 59.1751 121.434 58.586L122.459 58.8366C122.586 58.8633 122.69 58.9138 122.773 58.9881C122.863 59.0599 122.933 59.172 122.982 59.3243C123.028 59.4691 123.022 59.6347 122.965 59.8213C122.907 60.0079 122.847 60.2286 122.786 60.4834C122.733 60.7358 122.702 61.0315 122.693 61.3704C122.692 61.7069 122.765 62.1036 122.911 62.5607C123.034 62.9415 123.186 63.2582 123.367 63.5107C123.557 63.7607 123.761 63.9515 123.98 64.083C124.208 64.2196 124.444 64.2994 124.687 64.3223C124.929 64.3453 125.169 64.3189 125.405 64.2431C125.71 64.1453 125.933 63.977 126.075 63.7382C126.226 63.5046 126.33 63.2237 126.384 62.8954C126.44 62.5747 126.465 62.2182 126.456 61.826C126.448 61.4338 126.445 61.0315 126.447 60.6191C126.449 60.2067 126.473 59.7959 126.518 59.3865C126.563 58.9772 126.662 58.5924 126.815 58.2324C126.971 57.8799 127.196 57.5598 127.49 57.2722C127.787 56.9921 128.186 56.7714 128.689 56.61C129.138 56.4658 129.598 56.419 130.068 56.4698C130.541 56.5282 130.989 56.6825 131.414 56.9326C131.841 57.1904 132.229 57.5489 132.578 58.0082C132.938 58.4726 133.225 59.04 133.44 59.7103C133.687 60.4797 133.788 61.212 133.742 61.9072C133.699 62.61 133.535 63.2508 133.25 63.8296L132.281 63.5986Z" fill="#292C32"/>
<path id="e_2" d="M131.363 78.9621C131.827 78.9416 132.251 78.8548 132.637 78.7016C133.023 78.5564 133.354 78.3496 133.63 78.0811C133.907 77.8126 134.117 77.4911 134.26 77.1164C134.404 76.7416 134.465 76.3145 134.444 75.835C134.401 74.852 134.083 74.0893 133.49 73.5469C132.898 73.0125 132.095 72.6916 131.081 72.5843L131.363 78.9621ZM125.742 81.1444C125.394 80.8715 125.087 80.5527 124.823 80.188C124.566 79.823 124.353 79.432 124.182 79.0152C124.012 78.5983 123.88 78.1637 123.788 77.7113C123.697 77.2669 123.641 76.8249 123.622 76.3854C123.585 75.5462 123.69 74.7607 123.938 74.0291C124.194 73.3051 124.582 72.6673 125.103 72.1158C125.631 71.5719 126.292 71.1343 127.087 70.8029C127.889 70.4792 128.818 70.294 129.873 70.2474C130.72 70.2099 131.513 70.307 132.252 70.5386C132.999 70.7699 133.655 71.1172 134.22 71.5807C134.785 72.0522 135.24 72.6368 135.583 73.3343C135.926 74.0318 136.117 74.8241 136.156 75.7113C136.189 76.4546 136.095 77.1434 135.875 77.7777C135.663 78.4197 135.336 78.9787 134.892 79.4547C134.449 79.9308 133.893 80.3117 133.225 80.5975C132.557 80.8912 131.788 81.0574 130.917 81.0959C130.557 81.1118 130.312 81.0826 130.18 81.0083C130.057 80.9337 129.99 80.7885 129.981 80.5727L129.628 72.5885C128.902 72.6446 128.271 72.7766 127.736 72.9844C127.208 73.1919 126.772 73.4634 126.426 73.799C126.081 74.1426 125.83 74.542 125.674 74.9974C125.518 75.4527 125.453 75.9561 125.477 76.5076C125.5 77.0271 125.58 77.472 125.716 77.8423C125.853 78.2206 125.995 78.5427 126.143 78.8084C126.299 79.0818 126.441 79.3077 126.57 79.4862C126.698 79.6727 126.765 79.8379 126.772 79.9818C126.78 80.1736 126.715 80.3246 126.575 80.4349L125.742 81.1444Z" fill="#292C32"/>
<path id="s_2" d="M131.585 94.6757C131.498 94.5904 131.439 94.5073 131.408 94.4265C131.385 94.3474 131.385 94.2533 131.41 94.144C131.438 94.0192 131.513 93.8884 131.634 93.7518C131.753 93.6229 131.888 93.4607 132.039 93.2651C132.188 93.0774 132.338 92.8488 132.49 92.5795C132.641 92.3102 132.761 91.9765 132.851 91.5786C132.925 91.2509 132.95 90.9407 132.926 90.6482C132.908 90.3653 132.846 90.1134 132.74 89.8926C132.642 89.6736 132.503 89.4904 132.323 89.3432C132.151 89.1976 131.951 89.0993 131.725 89.0481C131.429 88.9811 131.163 89.0114 130.93 89.139C130.694 89.2744 130.474 89.4666 130.27 89.7158C130.064 89.9728 129.863 90.2675 129.664 90.6C129.472 90.9421 129.271 91.2863 129.062 91.6326C128.851 91.9867 128.623 92.3248 128.378 92.6467C128.139 92.9782 127.866 93.257 127.561 93.4833C127.262 93.7191 126.925 93.8849 126.55 93.9807C126.174 94.0844 125.744 94.0815 125.261 93.9722C124.707 93.847 124.215 93.6291 123.784 93.3187C123.36 93.0178 123.021 92.6334 122.766 92.1657C122.509 91.7057 122.347 91.1689 122.281 90.5552C122.214 89.9414 122.264 89.2678 122.43 88.5343C122.615 87.715 122.923 86.989 123.353 86.3562C123.783 85.7234 124.261 85.2206 124.789 84.8476L125.545 85.5844C125.64 85.6716 125.704 85.7681 125.738 85.8741C125.779 85.9818 125.782 86.1137 125.747 86.2698C125.713 86.4181 125.624 86.5579 125.48 86.6893C125.335 86.8206 125.172 86.9806 124.99 87.1691C124.815 87.3594 124.638 87.5982 124.459 87.8857C124.287 88.1749 124.148 88.5535 124.042 89.0217C123.954 89.4119 123.924 89.7619 123.952 90.0718C123.988 90.3834 124.067 90.6514 124.189 90.8757C124.316 91.1096 124.479 91.2981 124.676 91.4411C124.874 91.5841 125.093 91.6829 125.335 91.7376C125.647 91.8082 125.925 91.7766 126.168 91.643C126.418 91.5189 126.649 91.3293 126.863 91.0741C127.075 90.8267 127.277 90.532 127.469 90.1899C127.661 89.8478 127.863 89.4997 128.074 89.1456C128.285 88.7915 128.514 88.4495 128.761 88.1198C129.008 87.7901 129.289 87.5091 129.603 87.2768C129.917 87.0524 130.273 86.8909 130.673 86.7926C131.07 86.702 131.527 86.715 132.042 86.8314C132.502 86.9354 132.922 87.1287 133.301 87.4112C133.678 87.7015 133.986 88.0623 134.225 88.4936C134.462 88.9326 134.614 89.4386 134.682 90.0116C134.755 90.5941 134.714 91.2287 134.559 91.9153C134.381 92.7035 134.095 93.3853 133.703 93.961C133.308 94.5444 132.842 95.013 132.302 95.3668L131.585 94.6757Z" fill="#292C32"/>
</g>
<path id="Vector" d="M57.9747 92.9747L93.3126 57.6369M65.9351 59.0649C73.1994 61.0799 82.7347 61.9478 93.3378 57.6621C89.0521 68.2653 89.92 77.8005 91.9351 85.0648" stroke="#292C32" stroke-width="3.5"/>
</g>
</svg>
